<svg width="140" height="44" viewBox="0 0 140 44" fill="none" xmlns="http://www.w3.org/2000/svg">
<path fill-rule="evenodd" clip-rule="evenodd" d="M29.1047 9.2311C31.823 3.6767 37.4453 0.110481 43.6542 0.00243573C46.202 -0.0412252 48.7252 0.502612 51.0264 1.59133C56.4675 4.17732 60.0577 9.50977 60.3897 15.4996H60.4445C68.051 16.409 73.5083 23.2341 72.6882 30.8118C71.9238 37.7709 66.0836 43.0828 59.048 43.2182V43.24L11.4717 43.2348C11.4717 43.2348 10.3363 43.2294 9.58635 43.1312C3.58106 42.298 -0.646669 36.8329 0.0815622 30.8445C0.811145 24.8605 6.22146 20.5587 12.2494 21.1696L12.4443 21.0934C13.3312 13.8863 19.6847 8.59852 26.9721 9.00256C27.6787 9.047 28.3808 9.14523 29.0722 9.2964L29.1047 9.2311ZM27.8853 14.0715L29.928 15.5506C32.4167 12.334 39.5495 7.15466 48.1709 12.1697C51.857 14.7054 57.7502 22.1575 51.8335 31.6804C49.2274 35.2257 41.3386 40.8653 30.6323 35.0614C27.9793 32.8074 24.4058 27.1021 31.3367 22.3125C32.0933 21.721 33.7864 20.9231 36.2148 20.6924L33.3793 27.243C32.3228 27.1491 30.1111 27.088 29.7167 27.5952L30.6323 29.6378C31.2897 29.4969 33.0976 29.3983 35.0698 30.1309C37.042 30.8634 38.8499 30.53 39.5073 30.2717L38.9438 28.0882C37.9812 28.1587 35.9573 28.2291 35.5629 27.9473L38.8029 20.6734C39.906 20.7569 41.1072 20.9602 42.3951 21.3264C42.7004 24.8482 44.3814 31.6664 48.6639 30.7648C50.4014 30.2717 53.2845 28.2713 50.9179 24.2142C50.1431 22.9229 47.7624 20.1712 44.4378 19.495L44.0856 11.8175H40.2821L37.3237 18.4385C33.4357 18.1568 30.1158 20.1055 28.9419 21.1151C21.7292 27.5952 25.9366 34.1927 28.9419 36.6814C40.9442 44.0067 50.284 37.4327 53.4536 33.23C61.4551 21.4532 53.2658 12.5454 48.1709 9.56357C38.3662 4.77392 30.5619 10.5731 27.8853 14.0715ZM39.751 18.5931L41.9345 18.9453L41.7936 14.2261L39.751 18.5931ZM44.8108 22.0307C45.3777 25.1617 46.438 28.7882 47.9595 28.4404C49.57 27.8534 51.1948 25.7497 44.8108 22.0307Z" fill="url(#paint0_linear_666708_153)"/>
<path d="M77 30.7143H80.4123L84.2085 21.0612H98.2842L102.038 30.7143H105.621L93.3364 0H89.3696L77 30.7143ZM85.3601 18.1653L91.2464 3.11531L97.1326 18.1653H85.3601Z" fill="#2B9AF3" fill-opacity="0.9"/>
<path d="M109.063 30.7143H112.348V17.7704H122.03C127.831 17.7704 131.67 14.2163 131.67 8.86326C131.67 3.5102 127.874 0 122.03 0H109.063V30.7143ZM112.348 14.8306V3.02755H121.774C125.826 3.02755 128.385 5.26531 128.385 8.90714C128.385 12.549 125.826 14.8306 121.774 14.8306H112.348Z" fill="#2B9AF3" fill-opacity="0.9"/>
<path d="M136.68 30.7143H139.964V0H136.68V30.7143Z" fill="#2B9AF3" fill-opacity="0.9"/>
<path d="M82.0848 43C83.5696 43 84.9564 42.464 85.9369 41.5324L85.2365 40.8687C84.4941 41.6345 83.3315 42.0939 82.1128 42.0939C79.8296 42.0939 78.0926 40.4859 78.0926 38.3929C78.0926 36.2999 79.8156 34.6918 82.0848 34.6918C83.2895 34.6918 84.4801 35.1513 85.2505 35.9425L85.9649 35.2534C85.0124 34.3217 83.6116 33.7857 82.0848 33.7857C79.2272 33.7857 77 35.8149 77 38.3929C77 40.9708 79.2272 43 82.0848 43Z" fill="#2B9AF3" fill-opacity="0.9"/>
<path d="M86.5488 42.8596H87.6694L88.9161 40.0519H93.5386L94.7713 42.8596H95.948L91.9137 33.9261H90.611L86.5488 42.8596ZM89.2943 39.2096L91.2274 34.8322L93.1604 39.2096H89.2943Z" fill="#2B9AF3" fill-opacity="0.9"/>
<path d="M98.0311 42.8596H99.1097V34.8067H102.654V33.9261H94.4871V34.8067H98.0311V42.8596Z" fill="#2B9AF3" fill-opacity="0.9"/>
<path d="M101.199 42.8596H102.32L103.567 40.0519H108.189L109.422 42.8596H110.599L106.564 33.9261H105.262L101.199 42.8596ZM103.945 39.2096L105.878 34.8322L107.811 39.2096H103.945Z" fill="#2B9AF3" fill-opacity="0.9"/>
<path d="M111.729 42.8596H118.649V41.979H112.808V33.9261H111.729V42.8596Z" fill="#2B9AF3" fill-opacity="0.9"/>
<path d="M123.861 43C126.677 43 128.904 40.9708 128.904 38.3929C128.904 35.8149 126.677 33.7857 123.861 33.7857C121.032 33.7857 118.804 35.8149 118.804 38.3929C118.804 40.9708 121.032 43 123.861 43ZM123.861 42.0939C121.62 42.0939 119.897 40.4731 119.897 38.3929C119.897 36.2999 121.62 34.6918 123.861 34.6918C126.088 34.6918 127.811 36.2999 127.811 38.3929C127.811 40.4731 126.088 42.0939 123.861 42.0939Z" fill="#2B9AF3" fill-opacity="0.9"/>
<path d="M135.202 43C137.891 43 139.964 41.0729 139.964 38.5843V38.1887H135.356V39.0565H138.872C138.704 40.8049 137.177 42.0939 135.188 42.0939C132.946 42.0939 131.223 40.4859 131.223 38.3929C131.223 36.2999 132.946 34.6918 135.188 34.6918C136.392 34.6918 137.569 35.1513 138.325 35.9298L139.054 35.2534C138.101 34.3217 136.7 33.7857 135.188 33.7857C132.358 33.7857 130.131 35.8277 130.131 38.3929C130.131 40.9581 132.372 43 135.202 43Z" fill="#2B9AF3" fill-opacity="0.9"/>
<defs>
<linearGradient id="paint0_linear_666708_153" x1="70.5" y1="26.5" x2="6" y2="28" gradientUnits="userSpaceOnUse">
<stop stop-color="#2B9AF3"/>
<stop offset="1" stop-color="#35CAED"/>
</linearGradient>
</defs>
</svg>
