<svg width="73" height="44" viewBox="0 0 73 44" fill="none" xmlns="http://www.w3.org/2000/svg">
<path fill-rule="evenodd" clip-rule="evenodd" d="M29.1047 9.2311C31.823 3.6767 37.4453 0.110481 43.6542 0.00243574C46.202 -0.0412252 48.7252 0.502612 51.0264 1.59133C56.4675 4.17732 60.0577 9.50977 60.3897 15.4996H60.4445C68.051 16.409 73.5083 23.2341 72.6882 30.8118C71.9238 37.7709 66.0836 43.0828 59.048 43.2182V43.24L11.4717 43.2348C11.4717 43.2348 10.3363 43.2294 9.58635 43.1312C3.58106 42.298 -0.646669 36.8329 0.0815622 30.8445C0.811145 24.8605 6.22146 20.5587 12.2494 21.1696L12.4443 21.0934C13.3312 13.8863 19.6847 8.59852 26.9721 9.00256C27.6787 9.047 28.3808 9.14523 29.0722 9.2964L29.1047 9.2311ZM27.8853 14.0715L29.928 15.5506C32.4167 12.334 39.5495 7.15466 48.1709 12.1697C51.857 14.7054 57.7502 22.1575 51.8335 31.6804C49.2274 35.2257 41.3386 40.8653 30.6323 35.0614C27.9793 32.8074 24.4058 27.1021 31.3367 22.3125C32.0933 21.721 33.7864 20.9231 36.2148 20.6924L33.3793 27.243C32.3228 27.1491 30.1111 27.088 29.7167 27.5952L30.6323 29.6378C31.2897 29.4969 33.0976 29.3983 35.0698 30.1309C37.042 30.8634 38.8499 30.53 39.5073 30.2717L38.9438 28.0882C37.9812 28.1587 35.9573 28.2291 35.5629 27.9473L38.8029 20.6734C39.906 20.7569 41.1072 20.9602 42.3951 21.3264C42.7004 24.8482 44.3814 31.6664 48.6639 30.7648C50.4014 30.2717 53.2845 28.2713 50.9179 24.2142C50.1431 22.9229 47.7624 20.1712 44.4378 19.495L44.0856 11.8175H40.2821L37.3237 18.4385C33.4357 18.1568 30.1158 20.1055 28.9419 21.1151C21.7292 27.5952 25.9366 34.1927 28.9419 36.6814C40.9442 44.0067 50.284 37.4327 53.4536 33.23C61.4551 21.4532 53.2658 12.5454 48.1709 9.56357C38.3662 4.77392 30.5619 10.5731 27.8853 14.0715ZM39.751 18.5931L41.9345 18.9453L41.7936 14.2261L39.751 18.5931ZM44.8108 22.0307C45.3777 25.1617 46.438 28.7882 47.9595 28.4404C49.57 27.8534 51.1948 25.7497 44.8108 22.0307Z" fill="url(#paint0_linear_666706_138)"/>
<defs>
<linearGradient id="paint0_linear_666706_138" x1="7.31569" y1="33.5661" x2="64.5502" y2="21.5167" gradientUnits="userSpaceOnUse">
<stop stop-color="#2B9AF3"/>
<stop offset="1" stop-color="#35CAED"/>
</linearGradient>
</defs>
</svg>
