<svg width="66" height="48" viewBox="0 0 66 48" fill="none" xmlns="http://www.w3.org/2000/svg">
<g filter="url(#filter0_d_666671_552)">
<path d="M9.87767 3.00364C19.8182 2.83125 24.8638 8.82204 26.1441 11.839C23.7945 8.04627 17.1825 6.95441 14.1702 6.88256L9.87767 28.4322C23.6137 30.501 29.4576 37.3394 30.6625 40.5C20.1797 32.9145 7.91968 32.0238 3.10001 32.5266L9.87767 3.00364Z" fill="#61BFFA"/>
<path d="M9.87767 3.00364C19.8182 2.83125 24.8638 8.82204 26.1441 11.839C23.7945 8.04627 17.1825 6.95441 14.1702 6.88256L9.87767 28.4322C23.6137 30.501 29.4576 37.3394 30.6625 40.5C20.1797 32.9145 7.91968 32.0238 3.10001 32.5266L9.87767 3.00364Z" stroke="#61BFFA"/>
</g>
<g filter="url(#filter1_d_666671_552)">
<path d="M54.0723 3.00364C44.1318 2.83125 39.0862 8.82204 37.8059 11.839C40.1555 8.04627 46.7675 6.95441 49.7798 6.88256L54.0723 28.4322C40.3363 30.501 34.4924 37.3394 33.2875 40.5C43.7703 32.9145 56.0303 32.0238 60.85 32.5266L54.0723 3.00364Z" fill="#61BFFA"/>
<path d="M54.0723 3.00364C44.1318 2.83125 39.0862 8.82204 37.8059 11.839C40.1555 8.04627 46.7675 6.95441 49.7798 6.88256L54.0723 28.4322C40.3363 30.501 34.4924 37.3394 33.2875 40.5C43.7703 32.9145 56.0303 32.0238 60.85 32.5266L54.0723 3.00364Z" stroke="#61BFFA"/>
</g>
<path d="M20.7759 23.9512H22.2394L23.3404 21.3298H27.543L28.6305 23.9512H30.1612L26.3211 15H24.6562L20.7759 23.9512ZM23.7969 20.2173L25.4484 16.2788L27.0865 20.2173H23.7969Z" fill="#61BFFA"/>
<path d="M31.1302 23.9512H32.54V20.3451H35.4805C37.3065 20.3451 38.5552 19.2582 38.5552 17.6726C38.5552 16.0869 37.32 15 35.4805 15H31.1302V23.9512ZM32.54 19.2071V16.1765H35.3328C36.4338 16.1765 37.1454 16.7647 37.1454 17.6854C37.1454 18.6188 36.4338 19.2071 35.3328 19.2071H32.54Z" fill="#61BFFA"/>
<path d="M40.0071 23.9512H41.4169V15H40.0071V23.9512Z" fill="#61BFFA"/>
<path d="M21.7599 29.0251C22.273 29.0251 22.7717 28.815 23.1026 28.4725L22.7717 28.1528C22.5271 28.4268 22.1627 28.5821 21.7743 28.5821C21.055 28.5821 20.5131 28.0569 20.5131 27.3764C20.5131 26.6914 21.0502 26.1707 21.7599 26.1707C22.1483 26.1707 22.5223 26.326 22.7765 26.6092L23.1121 26.2803C22.7957 25.9378 22.2922 25.7277 21.7599 25.7277C20.7673 25.7277 20 26.4493 20 27.3764C20 28.2989 20.7673 29.0251 21.7599 29.0251Z" fill="#61BFFA"/>
<path d="M23.2595 28.9748H23.7822L24.1754 28.0386H25.6763L26.0647 28.9748H26.6114L25.2399 25.778H24.6453L23.2595 28.9748ZM24.3384 27.6413L24.9282 26.2347L25.5133 27.6413H24.3384Z" fill="#61BFFA"/>
<path d="M27.2741 28.9748H27.7776V26.2027H28.9572V25.778H26.0944V26.2027H27.2741V28.9748Z" fill="#61BFFA"/>
<path d="M28.4387 28.9748H28.9614L29.3546 28.0386H30.8556L31.244 28.9748H31.7906L30.4192 25.778H29.8246L28.4387 28.9748ZM29.5177 27.6413L30.1075 26.2347L30.6925 27.6413H29.5177Z" fill="#61BFFA"/>
<path d="M32.1367 28.9748H34.5727V28.5501H32.6402V25.778H32.1367V28.9748Z" fill="#61BFFA"/>
<path d="M36.4077 29.0251C37.3811 29.0251 38.1532 28.2989 38.1532 27.3764C38.1532 26.4539 37.3811 25.7277 36.4077 25.7277C35.4247 25.7277 34.6574 26.4539 34.6574 27.3764C34.6574 28.2989 35.4247 29.0251 36.4077 29.0251ZM36.4077 28.5821C35.7076 28.5821 35.1705 28.0569 35.1705 27.3764C35.1705 26.6914 35.7076 26.1707 36.4077 26.1707C37.103 26.1707 37.6401 26.6914 37.6401 27.3764C37.6401 28.0569 37.103 28.5821 36.4077 28.5821Z" fill="#61BFFA"/>
<path d="M40.2946 29.0251C41.2297 29.0251 41.9442 28.3309 41.9442 27.4175V27.2531H40.2994V27.6732H41.4167C41.3496 28.1984 40.8892 28.5866 40.2946 28.5866C39.5897 28.5866 39.0526 28.0614 39.0526 27.3764C39.0526 26.6914 39.5849 26.1707 40.285 26.1707C40.6734 26.1707 41.0427 26.326 41.292 26.6L41.6373 26.2803C41.3112 25.9332 40.8173 25.7277 40.285 25.7277C39.3068 25.7277 38.5395 26.4539 38.5395 27.3764C38.5395 28.2989 39.3116 29.0251 40.2946 29.0251Z" fill="#61BFFA"/>
<defs>
<filter id="filter0_d_666671_552" x="0.456177" y="2.5" width="33.2702" height="43.387" filterUnits="userSpaceOnUse" color-interpolation-filters="sRGB">
<feFlood flood-opacity="0" result="BackgroundImageFix"/>
<feColorMatrix in="SourceAlpha" type="matrix" values="0 0 0 0 0 0 0 0 0 0 0 0 0 0 0 0 0 0 127 0" result="hardAlpha"/>
<feOffset dy="2"/>
<feGaussianBlur stdDeviation="1"/>
<feComposite in2="hardAlpha" operator="out"/>
<feColorMatrix type="matrix" values="0 0 0 0 0 0 0 0 0 0 0 0 0 0 0 0 0 0 0.2 0"/>
<feBlend mode="normal" in2="BackgroundImageFix" result="effect1_dropShadow_666671_552"/>
<feBlend mode="normal" in="SourceGraphic" in2="effect1_dropShadow_666671_552" result="shape"/>
</filter>
<filter id="filter1_d_666671_552" x="28.2236" y="0.5" width="37.2702" height="47.387" filterUnits="userSpaceOnUse" color-interpolation-filters="sRGB">
<feFlood flood-opacity="0" result="BackgroundImageFix"/>
<feColorMatrix in="SourceAlpha" type="matrix" values="0 0 0 0 0 0 0 0 0 0 0 0 0 0 0 0 0 0 127 0" result="hardAlpha"/>
<feOffset dy="2"/>
<feGaussianBlur stdDeviation="2"/>
<feComposite in2="hardAlpha" operator="out"/>
<feColorMatrix type="matrix" values="0 0 0 0 0 0 0 0 0 0 0 0 0 0 0 0 0 0 0.2 0"/>
<feBlend mode="normal" in2="BackgroundImageFix" result="effect1_dropShadow_666671_552"/>
<feBlend mode="normal" in="SourceGraphic" in2="effect1_dropShadow_666671_552" result="shape"/>
</filter>
</defs>
</svg>
